<svg xmlns="http://www.w3.org/2000/svg" xmlns:xlink="http://www.w3.org/1999/xlink" width="83" height="83" viewBox="0 0 83 83"><defs><filter id="Ellipse_29" x="0" y="0" width="83" height="83" filterUnits="userSpaceOnUse"><feOffset input="SourceAlpha"/><feGaussianBlur stdDeviation="6.5" result="blur"/><feFlood flood-opacity="0.161"/><feComposite operator="in" in2="blur"/><feComposite in="SourceGraphic"/></filter></defs><g id="Group_963" data-name="Group 963" transform="translate(19.5 19.5)"><g transform="matrix(1, 0, 0, 1, -19.5, -19.5)" filter="url(#Ellipse_29)"><circle id="Ellipse_29-2" data-name="Ellipse 29" cx="22" cy="22" r="22" transform="translate(19.5 19.5)" fill="#fff"/></g><path id="arrow-small-right" d="M20,13h0a2.36,2.36,0,0,0-.674-1.635l-4.9-5.02a1.126,1.126,0,0,0-1.611,0,1.185,1.185,0,0,0,0,1.658l3.76,3.829H5.143a1.168,1.168,0,0,0,0,2.335H16.571l-3.76,3.841a1.186,1.186,0,0,0-.006,1.652,1.127,1.127,0,0,0,1.617.006l4.9-5.02A2.36,2.36,0,0,0,20,13Z" transform="translate(10 8.991)" fill="#252525"/></g></svg>
