<svg xmlns="http://www.w3.org/2000/svg" width="40" height="40" viewBox="0 0 40 40"><g id="www.flaticon.com_1_" data-name="www.flaticon.com (1)" transform="translate(-2.5 -2.5)"><path id="Path_1430" data-name="Path 1430" d="M22.5,2.5a20,20,0,1,0,20,20A20.02,20.02,0,0,0,22.5,2.5Zm0,9.333A2.661,2.661,0,0,1,25.167,14.5v5.333H30.5a2.667,2.667,0,0,1,0,5.333H25.167V30.5a2.667,2.667,0,0,1-5.333,0V25.167H14.5a2.667,2.667,0,0,1,0-5.333h5.333V14.5A2.661,2.661,0,0,1,22.5,11.833Z" fill="#455a64" fill-rule="evenodd"/></g></svg>
