<svg xmlns="http://www.w3.org/2000/svg" width="51" height="51" viewBox="0 0 51 51"><g id="Group_971" data-name="Group 971" transform="translate(-1081 -1227)"><rect id="Rectangle_660" data-name="Rectangle 660" width="51" height="51" rx="8" transform="translate(1081 1227)" fill="#ff4848"/><g id="Group_967" data-name="Group 967" transform="translate(1095.604 1240.031)"><path id="Path_1424" data-name="Path 1424" d="M136.208,138.6a2.349,2.349,0,0,0,2.533,2.34h11.475a2.394,2.394,0,0,0,2.667-2.532c.267-4.5.933-15.473.98-16.368h-18.64C135.224,122.234,135.876,133.329,136.208,138.6ZM153.847,117.6c-1.317-.008-2.635-.02-3.952.007a1.753,1.753,0,0,0-1.746-1.61H140.91a1.753,1.753,0,0,0-1.747,1.6c-1.355-.024-2.712-.016-4.068,0a1.378,1.378,0,0,0-1.392,1.025,1.482,1.482,0,0,0,1.484,1.988c3.117.01,6.234,0,9.351,0h9.293a1.508,1.508,0,1,0,.015-3.013Z" transform="translate(-133.631 -116)" fill="#fff"/></g></g></svg>
