<svg xmlns="http://www.w3.org/2000/svg" width="17" height="8.551" viewBox="0 0 17 8.551">
  <g id="eye" transform="translate(-2.487 -11.612)">
    <path id="Path_1425" data-name="Path 1425" d="M16.268,14.54a.942.942,0,0,1,1.29.344l1.8,3.121a.945.945,0,1,1-1.634.95l-1.8-3.12A.95.95,0,0,1,16.268,14.54Zm-3.379,1.624a.944.944,0,0,1,1.093.769l.559,3.184a.944.944,0,1,1-1.86.329l-.558-3.183A.948.948,0,0,1,12.888,16.164Zm-3.8-.008a.948.948,0,0,1,.767,1.1l-.559,3.191a.944.944,0,1,1-1.859-.329l.558-3.191A.944.944,0,0,1,9.085,16.157ZM5.7,14.539a.95.95,0,0,1,.346,1.295l-1.8,3.136a.945.945,0,1,1-1.636-.948l1.8-3.136A.942.942,0,0,1,5.7,14.539Z" transform="translate(0 -1.066)" fill="#3881e0" fill-rule="evenodd"/>
    <path id="Path_1426" data-name="Path 1426" d="M2.851,11.819a.955.955,0,0,1,1.327.139,8.693,8.693,0,0,0,13.635,0,.955.955,0,0,1,1.328-.139.918.918,0,0,1,.141,1.306,10.6,10.6,0,0,1-16.573,0,.918.918,0,0,1,.142-1.306Z" transform="translate(-0.005)" fill="#3881e0" fill-rule="evenodd"/>
  </g>
</svg>
