<svg xmlns="http://www.w3.org/2000/svg" xmlns:xlink="http://www.w3.org/1999/xlink" width="374" height="64" viewBox="0 0 374 64">
  <defs>
    <linearGradient id="linear-gradient" y1="0.216" x2="0.962" y2="0.203" gradientUnits="objectBoundingBox">
      <stop offset="0" stop-color="#3271fe"/>
      <stop offset="1" stop-color="#0af"/>
    </linearGradient>
    <linearGradient id="linear-gradient-2" x1="0.921" x2="0.073" y2="1" gradientUnits="objectBoundingBox">
      <stop offset="0" stop-color="#ff4848"/>
      <stop offset="1" stop-color="#dc0505"/>
    </linearGradient>
  </defs>
  <g id="Group_1076" data-name="Group 1076" transform="translate(-511 -52)">
    <g id="Layer_x0020_1" transform="translate(591 59)">
      <g id="_2151116882624" transform="translate(0 0)">
        <path id="Path_1277" data-name="Path 1277" d="M0,.694H24.065V25.5h-5.63V5.63H5.63V25.5H0V.694ZM35.814,36.35H30.168V.694h5.646V2.981A10.219,10.219,0,0,1,43.62,0a11.669,11.669,0,0,1,9.21,3.848,13.415,13.415,0,0,1,3.438,9.225,13.477,13.477,0,0,1-3.438,9.273,11.669,11.669,0,0,1-9.21,3.848,10.219,10.219,0,0,1-7.806-2.981V36.35Zm2.034-29.1a7.452,7.452,0,0,0-2.255,5.819,7.533,7.533,0,0,0,2.255,5.835,7.712,7.712,0,0,0,5.393,2.082,6.794,6.794,0,0,0,5.314-2.318,8.049,8.049,0,0,0,2.082-5.6,7.987,7.987,0,0,0-2.082-5.551A6.794,6.794,0,0,0,43.241,5.2a7.755,7.755,0,0,0-5.393,2.05ZM72.574,0A12.877,12.877,0,0,1,82,3.753a12.577,12.577,0,0,1,3.8,9.367A12.58,12.58,0,0,1,82,22.456a13.867,13.867,0,0,1-18.924.016,12.576,12.576,0,0,1-3.8-9.352,12.636,12.636,0,0,1,3.8-9.367A12.946,12.946,0,0,1,72.574,0Zm0,20.99a7.2,7.2,0,0,0,5.472-2.239,7.812,7.812,0,0,0,2.129-5.63,7.874,7.874,0,0,0-2.129-5.677A7.2,7.2,0,0,0,72.574,5.2,7.314,7.314,0,0,0,67.1,7.459a7.844,7.844,0,0,0-2.176,5.661A7.783,7.783,0,0,0,67.1,18.735,7.314,7.314,0,0,0,72.574,20.99Z" transform="translate(0 0)" fill="url(#linear-gradient)"/>
        <path id="Path_1278" data-name="Path 1278" d="M57.34.694H81.405V25.5h-5.63V5.63H62.97V25.5H57.34V.694Zm35.8,35.656h-5.63V.694h5.63V2.981A10.219,10.219,0,0,1,100.944,0a11.724,11.724,0,0,1,9.225,3.848,13.4,13.4,0,0,1,3.422,9.225,13.464,13.464,0,0,1-3.422,9.273,11.724,11.724,0,0,1-9.225,3.848,10.219,10.219,0,0,1-7.806-2.981V36.35Zm2.05-29.1a7.4,7.4,0,0,0-2.255,5.819,7.478,7.478,0,0,0,2.255,5.835,7.658,7.658,0,0,0,5.393,2.082,6.817,6.817,0,0,0,5.314-2.318,8.109,8.109,0,0,0,2.066-5.6A8.047,8.047,0,0,0,105.9,7.522,6.817,6.817,0,0,0,100.581,5.2a7.7,7.7,0,0,0-5.393,2.05ZM129.9,0a12.827,12.827,0,0,1,9.43,3.753,12.577,12.577,0,0,1,3.8,9.367,12.58,12.58,0,0,1-3.8,9.336,12.876,12.876,0,0,1-9.43,3.737,13.035,13.035,0,0,1-9.478-3.722,12.517,12.517,0,0,1-3.8-9.352,12.577,12.577,0,0,1,3.8-9.367A12.935,12.935,0,0,1,129.9,0Zm0,20.99a7.157,7.157,0,0,0,5.472-2.239,7.812,7.812,0,0,0,2.129-5.63,7.874,7.874,0,0,0-2.129-5.677A7.157,7.157,0,0,0,129.9,5.2a7.314,7.314,0,0,0-5.472,2.255,7.844,7.844,0,0,0-2.176,5.661,7.783,7.783,0,0,0,2.176,5.614A7.314,7.314,0,0,0,129.9,20.99Zm29.537,0c2.7,0,4.652-.9,5.851-2.712H171.4a11.75,11.75,0,0,1-4.636,5.788,13.058,13.058,0,0,1-7.333,2.129,12.911,12.911,0,0,1-9.446-3.722,12.621,12.621,0,0,1-3.785-9.4,12.783,12.783,0,0,1,3.674-9.32A12.418,12.418,0,0,1,159.183,0a11.983,11.983,0,0,1,9.02,3.69,12.659,12.659,0,0,1,3.564,9.162,13.424,13.424,0,0,1-.11,2.239h-19.6a6.807,6.807,0,0,0,2.523,4.274,7.556,7.556,0,0,0,4.857,1.624Zm-.252-15.943a7.441,7.441,0,0,0-4.715,1.514,6.04,6.04,0,0,0-2.3,4.006h13.657a6.5,6.5,0,0,0-2.208-4.037,6.742,6.742,0,0,0-4.431-1.482ZM176.34.694h5.63V10.9L192.962.694h7.712L187.111,13.121,200.673,25.5h-7.712L181.97,15.88V25.5h-5.63V.694ZM201.3,5.63V.694H225.8V5.63h-9.462V25.5H210.7V5.63h-9.4ZM255.285.694h5.63V25.5h-5.63V.694ZM234.5,8.342h7.065q4.684,0,7.175,2.476a8.252,8.252,0,0,1,2.507,6.135,8.247,8.247,0,0,1-2.476,6.135q-2.484,2.413-7.207,2.413H228.87V.694h5.63V8.342Zm0,12.222h6.907a4.725,4.725,0,0,0,3.091-.93,3.287,3.287,0,0,0,1.1-2.681,3.346,3.346,0,0,0-1.135-2.712,4.644,4.644,0,0,0-3.059-.962H234.5Z" transform="translate(33.085 0)" fill="#252525"/>
        <path id="Path_1279" data-name="Path 1279" d="M0,30.229a3.01,3.01,0,0,1,.552-1.766,3.838,3.838,0,0,1,1.53-1.23,5.019,5.019,0,0,1,2.145-.442,5.071,5.071,0,0,1,1.861.331,3.683,3.683,0,0,1,1.4.946A3.34,3.34,0,0,1,8.263,29.5H6.371a1.789,1.789,0,0,0-.5-.694,2.979,2.979,0,0,0-.788-.442,2.831,2.831,0,0,0-.852-.142,2.727,2.727,0,0,0-1.1.237,2.147,2.147,0,0,0-.883.694,1.841,1.841,0,0,0-.016,2.129,2.017,2.017,0,0,0,.852.678,2.838,2.838,0,0,0,1.151.237,2.657,2.657,0,0,0,1.246-.315,2.061,2.061,0,0,0,.867-.93H8.263a3.4,3.4,0,0,1-.8,1.435,3.591,3.591,0,0,1-1.388.93,4.928,4.928,0,0,1-1.845.331,5.026,5.026,0,0,1-2.145-.457,3.838,3.838,0,0,1-1.53-1.23A2.985,2.985,0,0,1,0,30.229Zm19.129,3.249H17.252l-.678-1.262h-3.9L12,33.477H10.124l3.548-6.529h1.94l3.517,6.529ZM14.635,28.62,13.4,30.875h2.46l-1.23-2.255Zm10.424-1.53a2.642,2.642,0,0,1-1.593-.442,1.478,1.478,0,0,1-.6-1.309h1.057a.861.861,0,0,0,.315.71,1.281,1.281,0,0,0,1.609,0,.882.882,0,0,0,.315-.71h1.057a1.536,1.536,0,0,1-.6,1.309,2.575,2.575,0,0,1-1.561.442ZM22.993,31.38l4.148-4.431h1.829v6.529H27.14V29.046l-4.148,4.431H21.179V26.949h1.814V31.38ZM31.4,28.462V26.949h7.538Zm7.538-1.514v1.514H36.1v5.015H34.268V28.462H31.4V26.949h7.538Zm12.711,5.109h.883v2.255H50.8v-.836H45.717v.836H44V32.058h.583a13.727,13.727,0,0,0,1.088-2.507,9.363,9.363,0,0,0,.347-2.6h5.63v5.109Zm-4.021-3.737a9.05,9.05,0,0,1-.442,1.877,15.082,15.082,0,0,1-.8,1.861h3.564V28.336Zm14.7-1.372v6.529H60.494V28.321H58.018c-.11.788-.252,1.482-.394,2.082a11.037,11.037,0,0,1-.615,1.8,1.826,1.826,0,0,1-.71.82,2.166,2.166,0,0,1-.725.315c-.158.032-.473.079-.9.142V31.916a.9.9,0,0,0,.915-.662,18.828,18.828,0,0,0,.773-4.305Zm8.311,3.059v0Zm1.545,3.454H70.413v-2.1H68.521l-1.8,2.1H64.594l1.892-2.208a2.367,2.367,0,0,1-1.356-.725,1.965,1.965,0,0,1-.489-1.388v-.032a1.9,1.9,0,0,1,.347-1.135,2.4,2.4,0,0,1,.978-.757,3.778,3.778,0,0,1,1.451-.268h4.763v6.513Zm-4.337-5.188c-.331,0-.583.016-.757.032a.7.7,0,0,0-.442.252.924.924,0,0,0-.173.615.814.814,0,0,0,.173.568.76.76,0,0,0,.442.237c.173.016.426.032.757.032h2.571V28.289c-1.009,0-1.75,0-2.208-.016Zm17.473-1.325v6.529H83.455V28.321H79.449v5.157H77.6V26.949Zm6.529-.126a4.9,4.9,0,0,1,2.129.442,3.605,3.605,0,0,1,1.467,1.214,3,3,0,0,1,.536,1.766,2.935,2.935,0,0,1-.536,1.735,3.639,3.639,0,0,1-1.467,1.23,5.136,5.136,0,0,1-2.129.442,5.022,5.022,0,0,1-2.082-.442,3.838,3.838,0,0,1-1.53-1.23,3.027,3.027,0,0,1,0-3.485,3.764,3.764,0,0,1,1.514-1.23A4.9,4.9,0,0,1,91.844,26.822Zm0,5.393a2.6,2.6,0,0,0,1.088-.237,2.024,2.024,0,0,0,.82-.678,1.711,1.711,0,0,0,.315-1.057,1.79,1.79,0,0,0-.315-1.072,2.024,2.024,0,0,0-.82-.678,2.74,2.74,0,0,0-2.192-.016,1.96,1.96,0,0,0-.82.694,1.928,1.928,0,0,0,0,2.113,1.9,1.9,0,0,0,.836.694,2.549,2.549,0,0,0,1.088.237Zm8.342-5.267V31.38l4.132-4.431h1.829v6.529h-1.829V29.046l-4.132,4.431H98.357V26.949h1.829Zm8.358,3.28a2.9,2.9,0,0,1,.552-1.766,3.838,3.838,0,0,1,1.53-1.23,4.97,4.97,0,0,1,2.145-.442,5.071,5.071,0,0,1,1.861.331,3.624,3.624,0,0,1,1.388.946,3.208,3.208,0,0,1,.788,1.435H114.9a1.643,1.643,0,0,0-.5-.694,2.555,2.555,0,0,0-.789-.442,2.622,2.622,0,0,0-1.94.095,2.3,2.3,0,0,0-.9.694,1.914,1.914,0,0,0-.016,2.129,2.065,2.065,0,0,0,.867.678,2.838,2.838,0,0,0,1.151.237,2.657,2.657,0,0,0,1.246-.315,2.149,2.149,0,0,0,.867-.93h1.924a3.4,3.4,0,0,1-.8,1.435,3.713,3.713,0,0,1-1.388.93,4.928,4.928,0,0,1-1.845.331,5.026,5.026,0,0,1-2.145-.457,3.838,3.838,0,0,1-1.53-1.23,2.877,2.877,0,0,1-.552-1.735Zm13.988-.284,3.816,3.532h-2.366l-2.949-2.854v2.854h-1.829V26.949h1.829V29.33l2.791-2.381h2.4l-3.69,3Zm14.43,3.532h-1.877l-.678-1.262h-3.9l-.678,1.262h-1.877l3.548-6.529h1.924l3.532,6.529Zm-4.494-4.857-1.23,2.255h2.46Zm17.11-1.672v6.529h-1.861V28.321h-4.006v5.157h-1.845V26.949Zm7.317,0a3.451,3.451,0,0,1,1.451.284,2.162,2.162,0,0,1,.978.757,1.9,1.9,0,0,1,.347,1.135v.032a2.009,2.009,0,0,1-.678,1.64,2.963,2.963,0,0,1-1.94.568h-3.091v2.113h-1.829V26.949H156.9Zm-.284,3.059c.331,0,.583-.016.757-.032a.9.9,0,0,0,.442-.221.859.859,0,0,0,.173-.583.924.924,0,0,0-.173-.615.739.739,0,0,0-.457-.221,4.455,4.455,0,0,0-.741-.047h-2.649v1.719h2.649Zm9.43-3.186a4.877,4.877,0,0,1,2.113.442,3.654,3.654,0,0,1,1.482,1.214,3,3,0,0,1,.536,1.766,2.935,2.935,0,0,1-.536,1.735,3.688,3.688,0,0,1-1.482,1.23,5.24,5.24,0,0,1-4.211,0,3.9,3.9,0,0,1-1.514-1.23,2.892,2.892,0,0,1-.568-1.735,3,3,0,0,1,.552-1.75,3.709,3.709,0,0,1,1.53-1.23A4.855,4.855,0,0,1,166.042,26.822Zm0,5.393a2.479,2.479,0,0,0,1.072-.237,2.071,2.071,0,0,0,.836-.678,1.818,1.818,0,0,0,.315-1.057,1.905,1.905,0,0,0-.315-1.072,2.071,2.071,0,0,0-.836-.678,2.479,2.479,0,0,0-1.072-.237,2.56,2.56,0,0,0-1.1.221,2.005,2.005,0,0,0-.836.694,1.809,1.809,0,0,0-.3,1.057,1.711,1.711,0,0,0,.315,1.057,1.854,1.854,0,0,0,.82.694,2.619,2.619,0,0,0,1.1.237Zm12.584-1.4h-4.258v1.309l5-.047v1.4H172.54V26.949h6.828l.016,1.388h-5.015v1.1h4.258Zm6.513-.867,3.816,3.532h-2.365l-2.949-2.854v2.854h-1.829V26.949h1.829V29.33l2.791-2.381h2.4l-3.69,3Zm5.835-1.482V26.949h7.538Zm7.538-1.514v1.514h-2.839v5.015h-1.829V28.462h-2.87V26.949h7.538Zm4.258,0V31.38l4.132-4.431h1.829v6.529H206.9V29.046l-4.132,4.431h-1.829V26.949Zm13.294,0a3.5,3.5,0,0,1,1.451.284,2.162,2.162,0,0,1,.978.757,1.9,1.9,0,0,1,.347,1.135v.032a2.009,2.009,0,0,1-.678,1.64,2.963,2.963,0,0,1-1.94.568h-3.091v2.113H211.3V26.949h4.763Zm-.284,3.059c.331,0,.568-.016.741-.032a.84.84,0,0,0,.442-.221.787.787,0,0,0,.189-.583.845.845,0,0,0-.189-.615.664.664,0,0,0-.442-.221,4.456,4.456,0,0,0-.741-.047h-2.649v1.719Zm9.415-3.186a4.9,4.9,0,0,1,2.129.442,3.654,3.654,0,0,1,1.482,1.214,3.112,3.112,0,0,1,.536,1.766,3.049,3.049,0,0,1-.536,1.735,3.688,3.688,0,0,1-1.482,1.23,5.136,5.136,0,0,1-2.129.442,5.022,5.022,0,0,1-2.082-.442,3.682,3.682,0,0,1-1.514-1.23,2.892,2.892,0,0,1-.568-1.735,3,3,0,0,1,.552-1.75,3.709,3.709,0,0,1,1.53-1.23A4.785,4.785,0,0,1,225.2,26.822Zm0,5.393a2.549,2.549,0,0,0,1.088-.237,2.071,2.071,0,0,0,.836-.678,1.818,1.818,0,0,0,.315-1.057,1.906,1.906,0,0,0-.315-1.072,2.071,2.071,0,0,0-.836-.678,2.549,2.549,0,0,0-1.088-.237,2.608,2.608,0,0,0-1.1.221,2.062,2.062,0,0,0-.82.694,2.013,2.013,0,0,0,0,2.113,1.986,1.986,0,0,0,.836.694A2.6,2.6,0,0,0,225.2,32.216Zm13.1-2.16a2.066,2.066,0,0,1,1.12.52,1.359,1.359,0,0,1,.378,1.041v.032a1.552,1.552,0,0,1-.378,1.12,2.173,2.173,0,0,1-1.072.552,8.684,8.684,0,0,1-1.735.158h-4.9V26.949h5.314a3.048,3.048,0,0,1,1.624.426,1.36,1.36,0,0,1,.615,1.183v.032a1.662,1.662,0,0,1-.237.93A1.424,1.424,0,0,1,238.3,30.055Zm-.836-1.214a.552.552,0,0,0-.536-.647,3.84,3.84,0,0,0-.694-.047h-2.791v1.372l2.113.032h.678a6.574,6.574,0,0,0,.694-.032.607.607,0,0,0,.378-.173A.669.669,0,0,0,237.465,28.841Zm-.93,3.327a5.262,5.262,0,0,0,.788-.032.725.725,0,0,0,.426-.205.752.752,0,0,0,.158-.536.686.686,0,0,0-.158-.52.725.725,0,0,0-.426-.205c-.173-.016-.442-.032-.788-.032h-3.091v1.514c1.277,0,2.176.016,2.728.016Zm15.234-5.22H253.6v5.109h.93v2.555H252.7V33.477H242.2V26.949h1.814v5.109h2.981V26.949H248.8v5.109h2.965V26.949Zm7.018,0V31.38l4.132-4.431h1.829v6.529h-1.829V29.046l-4.132,4.431h-1.829V26.949Zm11.859,3,3.816,3.532H272.1l-2.949-2.854v2.854h-1.829V26.949h1.829V29.33l2.791-2.381h2.4l-3.69,3Zm8.752-3.122a4.78,4.78,0,0,1,2.113.442,3.553,3.553,0,0,1,1.482,1.214,3,3,0,0,1,.536,1.766,2.935,2.935,0,0,1-.536,1.735,3.585,3.585,0,0,1-1.482,1.23,5.009,5.009,0,0,1-2.113.442,5.151,5.151,0,0,1-2.1-.442,3.9,3.9,0,0,1-1.514-1.23,2.958,2.958,0,0,1,0-3.485,3.563,3.563,0,0,1,1.514-1.23A4.905,4.905,0,0,1,279.4,26.822Zm0,5.393a2.6,2.6,0,0,0,1.088-.237,2.024,2.024,0,0,0,.82-.678,1.818,1.818,0,0,0,.315-1.057,1.905,1.905,0,0,0-.315-1.072,2.024,2.024,0,0,0-.82-.678,2.74,2.74,0,0,0-2.192-.016,1.96,1.96,0,0,0-.82.694,1.927,1.927,0,0,0,0,2.113,1.943,1.943,0,0,0,.82.694A2.619,2.619,0,0,0,279.4,32.216Zm13.1-2.16a2.123,2.123,0,0,1,1.12.52A1.359,1.359,0,0,1,294,31.616v.032a1.493,1.493,0,0,1-.394,1.12,2.106,2.106,0,0,1-1.072.552,8.512,8.512,0,0,1-1.719.158h-4.9V26.949h5.3a3.067,3.067,0,0,1,1.64.426,1.383,1.383,0,0,1,.6,1.183v.032a1.662,1.662,0,0,1-.237.93,1.382,1.382,0,0,1-.71.536Zm-.836-1.214a.592.592,0,0,0-.158-.473.607.607,0,0,0-.379-.173,3.962,3.962,0,0,0-.694-.047h-2.791v1.372l2.113.032h.678a6.573,6.573,0,0,0,.694-.032.7.7,0,0,0,.379-.173A.669.669,0,0,0,291.666,28.841Zm-.946,3.327a5.385,5.385,0,0,0,.8-.032.774.774,0,0,0,.426-.205.835.835,0,0,0,.158-.536.757.757,0,0,0-.158-.52.774.774,0,0,0-.426-.205c-.173-.016-.442-.032-.8-.032h-3.075v1.514c1.277,0,2.176.016,2.712.016Z" transform="translate(0 14.387)" fill="#252525"/>
      </g>
    </g>
    <rect id="Rectangle_643" data-name="Rectangle 643" width="64" height="64" rx="15" transform="translate(511 52)" fill="url(#linear-gradient-2)"/>
    <g id="Layer_x0020_1-2" data-name="Layer_x0020_1" transform="translate(524 64)">
      <g id="_2151120347488" transform="translate(0 0)">
        <path id="Path_1395" data-name="Path 1395" d="M9.9,9.865l-2.942,5.1V26.4L8.781,27.46,19.344,22.5l2.8-4.623-.2-12.16L19.4,4.85Z" transform="translate(12.1 8.266)" fill="#eb2323"/>
        <path id="Path_1396" data-name="Path 1396" d="M17.8,14.8,27.854,9.2l-.386-2.241L17.994,2.25l-5.068-.28L2.35,6.985v2.41l9.557,4.763Z" transform="translate(4.234 3.549)" fill="#fe4848"/>
        <path id="Path_1397" data-name="Path 1397" d="M3.637,4.62,13.892,9.551l2.942,4.987L16.806,26.53l-2.662,1.877S3.693,22.831,3.89,22.916,2.1,18.1,2.1,18.1L1.34,6.133l2.3-1.513Z" transform="translate(2.414 7.852)" fill="#c70000"/>
        <path id="Path_1398" data-name="Path 1398" d="M21.88,34.455a3.535,3.535,0,0,0-1.413-.859V22.767a3.678,3.678,0,0,0,2.52-3.49,3.052,3.052,0,0,0-.055-.5l8.974-4.487a3.658,3.658,0,0,0,1.745.831v10.8A3.72,3.72,0,0,0,30.6,29.58a3.01,3.01,0,0,0,.028.5ZM4.9,26.09V14.984a3.436,3.436,0,0,0,1.385-.859l9.334,4.653a3.052,3.052,0,0,0-.055.5,3.678,3.678,0,0,0,2.52,3.49V33.6a3.535,3.535,0,0,0-1.413.859L7.4,29.8V29.58A3.689,3.689,0,0,0,4.9,26.09Zm29.386-15.9a1.3,1.3,0,1,1,0,2.6,1.3,1.3,0,1,1,0-2.6Zm-13.71,9.085a1.3,1.3,0,1,1-1.3-1.3A1.3,1.3,0,0,1,20.579,19.277ZM16.673,6.343a3.746,3.746,0,0,0,5.207,0l8.808,4.4a3.089,3.089,0,0,0-.083.748,3.438,3.438,0,0,0,.083.748l-8.808,4.4a3.678,3.678,0,0,0-5.207,0L7.367,11.993a3.01,3.01,0,0,0,.028-.5,3.01,3.01,0,0,0-.028-.5l9.306-4.653Zm1.3-2.631a1.3,1.3,0,1,1,1.3,1.3A1.307,1.307,0,0,1,17.975,3.711ZM3.711,10.192a1.3,1.3,0,1,1-1.329,1.3,1.3,1.3,0,0,1,1.329-1.3Zm0,20.69a1.3,1.3,0,1,1,1.3-1.3A1.307,1.307,0,0,1,3.711,30.882Zm15.566,7.506a1.3,1.3,0,1,1,1.3-1.3A1.3,1.3,0,0,1,19.277,38.388Zm15.012-7.506a1.3,1.3,0,1,1,0-2.6,1.3,1.3,0,1,1,0,2.6Zm1.773-4.57V14.735a3.7,3.7,0,0,0-1.773-6.952,3.611,3.611,0,0,0-2.382.886L22.933,4.182a2.439,2.439,0,0,0,.055-.471,3.711,3.711,0,1,0-7.423,0,2.439,2.439,0,0,0,.055.471L6.287,8.863a3.645,3.645,0,0,0-2.576-1.08,3.7,3.7,0,0,0-1.219,7.2V26.09a3.691,3.691,0,1,0,3.988,5.927l9.14,4.57a3.052,3.052,0,0,0-.055.5,3.711,3.711,0,0,0,7.423,0,3.052,3.052,0,0,0-.055-.5l8.78-4.376a3.621,3.621,0,0,0,2.576,1.052A3.706,3.706,0,0,0,38,29.58a3.764,3.764,0,0,0-1.939-3.268h0Z" transform="translate(0 0)" fill="#eef6ff"/>
      </g>
    </g>
  </g>
</svg>
