<svg xmlns="http://www.w3.org/2000/svg" width="19.2" height="19.205" viewBox="0 0 19.2 19.205"><g id="refresh" transform="translate(-2.461)"><path id="Path_1280" data-name="Path 1280" d="M4.862,8.549A7.3,7.3,0,0,1,16.793,4.122l-.938.929a.792.792,0,0,0,0,1.128.809.809,0,0,0,.569.233h3.693a.8.8,0,0,0,.805-.8V1.958a.807.807,0,0,0-1.374-.564L18.5,2.431A9.749,9.749,0,0,0,4.83,3.208,9.548,9.548,0,0,0,2.477,8.2,1.209,1.209,0,0,0,3.485,9.586a1.233,1.233,0,0,0,.181.016A1.216,1.216,0,0,0,4.862,8.549Z" transform="translate(0 0)" fill="#3881e0"/><path id="Path_1281" data-name="Path 1281" d="M39.491,256.891a1.216,1.216,0,0,0-1.2,1.053,7.3,7.3,0,0,1-11.931,4.427l.938-.929a.792.792,0,0,0,0-1.128.809.809,0,0,0-.569-.233H23.04a.8.8,0,0,0-.805.8v3.657a.807.807,0,0,0,1.374.564l1.047-1.037a9.748,9.748,0,0,0,13.67-.775,9.547,9.547,0,0,0,2.354-4.994,1.209,1.209,0,0,0-1.007-1.386A1.227,1.227,0,0,0,39.491,256.891Z" transform="translate(-19.035 -247.289)" fill="#3881e0"/></g></svg>
