<svg xmlns="http://www.w3.org/2000/svg" width="566" height="499.294" viewBox="0 0 566 499.294">
  <g id="Group_926" data-name="Group 926" transform="translate(5787.245 2422.971)">
    <g id="Group_902" data-name="Group 902" transform="translate(-5787.245 -2422.971)">
      <g id="Group_897" data-name="Group 897" transform="translate(0 250.084)">
        <rect id="Rectangle_608" data-name="Rectangle 608" width="26.82" height="184.164" transform="translate(26.82 184.165) rotate(180)" fill="#e6e6e6"/>
        <path id="Path_1284" data-name="Path 1284" d="M60.34,393.1H50.9v-35h19.34Z" transform="translate(-50.899 -208.932)" fill="#f0f0f0"/>
        <rect id="Rectangle_609" data-name="Rectangle 609" width="26.82" height="184.164" transform="translate(310.437 184.165) rotate(180)" fill="#e6e6e6"/>
        <rect id="Rectangle_610" data-name="Rectangle 610" width="291.855" height="174.612" transform="translate(291.855 174.612) rotate(180)" fill="#f0f0f0"/>
        <path id="Path_1285" data-name="Path 1285" d="M250.013,393.1h9.441v-35h-19.34Z" transform="translate(32.401 -208.932)" fill="#f0f0f0"/>
        <g id="Group_894" data-name="Group 894" transform="translate(194.914 13.737)">
          <path id="Path_1286" data-name="Path 1286" d="M270.478,409.949H189.945a3.716,3.716,0,0,1-3.712-3.711V267.777a3.716,3.716,0,0,1,3.712-3.711h80.532a3.716,3.716,0,0,1,3.711,3.711v138.46A3.714,3.714,0,0,1,270.478,409.949ZM189.945,265.506a2.274,2.274,0,0,0-2.271,2.271v138.46a2.274,2.274,0,0,0,2.271,2.271h80.532a2.273,2.273,0,0,0,2.271-2.271V267.777a2.273,2.273,0,0,0-2.271-2.271Z" transform="translate(-186.233 -264.066)" fill="#fff"/>
        </g>
        <g id="Group_895" data-name="Group 895" transform="translate(101.949 13.737)">
          <path id="Path_1287" data-name="Path 1287" d="M205.929,409.949H125.4a3.716,3.716,0,0,1-3.712-3.711V267.777a3.716,3.716,0,0,1,3.712-3.711h80.532a3.716,3.716,0,0,1,3.711,3.711v138.46A3.716,3.716,0,0,1,205.929,409.949ZM125.4,265.506a2.274,2.274,0,0,0-2.271,2.271v138.46a2.274,2.274,0,0,0,2.271,2.271h80.532a2.273,2.273,0,0,0,2.271-2.271V267.777a2.273,2.273,0,0,0-2.271-2.271Z" transform="translate(-121.685 -264.066)" fill="#fff"/>
        </g>
        <g id="Group_896" data-name="Group 896" transform="translate(8.983 13.737)">
          <path id="Path_1288" data-name="Path 1288" d="M141.381,409.949H60.847a3.716,3.716,0,0,1-3.712-3.711V267.777a3.716,3.716,0,0,1,3.712-3.711H141.38a3.716,3.716,0,0,1,3.712,3.711v138.46A3.715,3.715,0,0,1,141.381,409.949ZM60.847,265.506a2.274,2.274,0,0,0-2.271,2.271v138.46a2.274,2.274,0,0,0,2.271,2.271H141.38a2.273,2.273,0,0,0,2.271-2.271V267.777a2.273,2.273,0,0,0-2.271-2.271Z" transform="translate(-57.136 -264.066)" fill="#fff"/>
        </g>
      </g>
      <g id="Group_898" data-name="Group 898" transform="translate(356.528)">
        <rect id="Rectangle_611" data-name="Rectangle 611" width="148.474" height="394.649" transform="translate(167.977 394.649) rotate(180)" fill="#e6e6e6"/>
        <rect id="Rectangle_612" data-name="Rectangle 612" width="154.752" height="394.649" transform="translate(166.939 394.649) rotate(180)" fill="#f0f0f0"/>
        <rect id="Rectangle_613" data-name="Rectangle 613" width="148.474" height="6.796" transform="translate(167.977 401.445) rotate(180)" fill="#e6e6e6"/>
        <rect id="Rectangle_614" data-name="Rectangle 614" width="154.752" height="6.796" transform="translate(154.752 401.445) rotate(180)" fill="#f0f0f0"/>
        <rect id="Rectangle_615" data-name="Rectangle 615" width="374.167" height="134.269" transform="translate(156.698 10.241) rotate(90)" fill="#fafafa"/>
        <path id="Path_1289" data-name="Path 1289" d="M335.261,462.164,351.661,88h28.374l-16.4,374.166Z" transform="translate(-282.239 -77.757)" fill="#fff"/>
        <path id="Path_1290" data-name="Path 1290" d="M404.192,198.767a.783.783,0,0,0,.784-.783V92.863a.784.784,0,0,0-1.567,0V197.982A.785.785,0,0,0,404.192,198.767Z" transform="translate(-252.238 -75.96)" fill="#f0f0f0"/>
        <path id="Path_1291" data-name="Path 1291" d="M359.2,462.164,375.595,88h11.063l-16.4,374.166Z" transform="translate(-271.702 -77.757)" fill="#fff"/>
        <rect id="Rectangle_616" data-name="Rectangle 616" width="374.167" height="1.301" transform="translate(23.728 10.241) rotate(90)" fill="#e6e6e6"/>
        <path id="Path_1292" data-name="Path 1292" d="M305.228,100.148H456.082l.943-9.385H306.17Z" transform="translate(-295.461 -76.539)" fill="#e0e0e0" opacity="0.5"/>
        <path id="Path_1293" data-name="Path 1293" d="M305.228,110.861H456.082l.943-9.386H306.17Z" transform="translate(-295.461 -71.824)" fill="#e0e0e0" opacity="0.5"/>
        <path id="Path_1294" data-name="Path 1294" d="M305.228,121.573H456.082l.943-9.386H306.17Z" transform="translate(-295.461 -67.108)" fill="#e0e0e0" opacity="0.5"/>
        <path id="Path_1295" data-name="Path 1295" d="M305.228,132.285H456.082l.943-9.386H306.17Z" transform="translate(-295.461 -62.392)" fill="#e0e0e0" opacity="0.5"/>
        <path id="Path_1296" data-name="Path 1296" d="M305.228,143H456.082l.943-9.386H306.17Z" transform="translate(-295.461 -57.676)" fill="#e0e0e0" opacity="0.5"/>
        <path id="Path_1297" data-name="Path 1297" d="M305.228,153.709H456.082l.943-9.385H306.17Z" transform="translate(-295.461 -52.96)" fill="#e0e0e0" opacity="0.5"/>
      </g>
      <g id="Group_899" data-name="Group 899" transform="translate(46.582 4.473)">
        <rect id="Rectangle_617" data-name="Rectangle 617" width="200.673" height="112.069" transform="translate(1.92)" fill="#e6e6e6"/>
        <rect id="Rectangle_618" data-name="Rectangle 618" width="200.673" height="112.069" fill="#f5f5f5"/>
        <rect id="Rectangle_619" data-name="Rectangle 619" width="83.265" height="171.868" transform="translate(186.27 14.403) rotate(90)" fill="#fff"/>
        <path id="Path_1298" data-name="Path 1298" d="M114.281,177.258l10.612-83.265h29.956l-10.612,83.265Z" transform="translate(-69.577 -79.591)" fill="#fafafa"/>
        <path id="Path_1299" data-name="Path 1299" d="M140.5,177.258l10.612-83.265h17.047l-10.613,83.265Z" transform="translate(-58.033 -79.591)" fill="#fafafa"/>
        <path id="Path_1300" data-name="Path 1300" d="M183.263,177.258l10.613-83.265h17.045L200.31,177.258Z" transform="translate(-39.209 -79.591)" fill="#fafafa"/>
        <rect id="Rectangle_620" data-name="Rectangle 620" width="83.265" height="1.892" transform="translate(16.293 14.402) rotate(90)" fill="#e6e6e6"/>
      </g>
      <g id="Group_900" data-name="Group 900" transform="translate(213.51 152.536)">
        <rect id="Rectangle_621" data-name="Rectangle 621" width="6.095" height="72.244" transform="translate(32.005 18.625)" fill="#f5f5f5"/>
        <rect id="Rectangle_622" data-name="Rectangle 622" width="1.721" height="72.244" transform="translate(35.594 18.547)" fill="#fafafa"/>
        <path id="Path_1301" data-name="Path 1301" d="M243.733,257.525H212.715v-3.346a6.065,6.065,0,0,1,6.065-6.065h18.89a6.064,6.064,0,0,1,6.063,6.065Z" transform="translate(-193.171 -159.803)" fill="#f0f0f0"/>
        <path id="Path_1302" data-name="Path 1302" d="M230.969,252.748v-4.921a.983.983,0,0,0-.979-.981h-2.34a.984.984,0,0,0-.981.981v4.921a.984.984,0,0,0,.981.981h2.34A.983.983,0,0,0,230.969,252.748Z" transform="translate(-187.028 -160.361)" fill="#f0f0f0"/>
        <path id="Path_1303" data-name="Path 1303" d="M269.25,214.391H199.145l.494-1.689A36.005,36.005,0,0,1,234.2,186.8h0a36,36,0,0,1,34.559,25.9Z" transform="translate(-199.145 -186.797)" fill="#e0e0e0"/>
      </g>
      <g id="Group_901" data-name="Group 901" transform="translate(7.638 152.536)">
        <rect id="Rectangle_623" data-name="Rectangle 623" width="6.095" height="72.244" transform="translate(32.005 18.625)" fill="#f5f5f5"/>
        <rect id="Rectangle_624" data-name="Rectangle 624" width="1.721" height="72.244" transform="translate(35.594 18.547)" fill="#fafafa"/>
        <path id="Path_1304" data-name="Path 1304" d="M100.79,257.525H69.772v-3.346a6.065,6.065,0,0,1,6.065-6.065h18.89a6.065,6.065,0,0,1,6.065,6.065v3.346Z" transform="translate(-50.228 -159.803)" fill="#f0f0f0"/>
        <path id="Path_1305" data-name="Path 1305" d="M88.027,252.748v-4.921a.984.984,0,0,0-.981-.981h-2.34a.983.983,0,0,0-.979.981v4.921a.983.983,0,0,0,.979.981h2.34A.984.984,0,0,0,88.027,252.748Z" transform="translate(-44.085 -160.361)" fill="#f0f0f0"/>
        <path id="Path_1306" data-name="Path 1306" d="M126.307,214.391H56.2L56.7,212.7a36,36,0,0,1,34.559-25.9h0a36,36,0,0,1,34.559,25.9Z" transform="translate(-56.202 -186.797)" fill="#e0e0e0"/>
      </g>
    </g>
    <g id="Shadow_1_" transform="translate(-5779.738 -1956.293)">
      <ellipse id="_x3C_Path_x3E__160_" cx="279.247" cy="16.308" rx="279.247" ry="16.308" fill="#f5f5f5"/>
    </g>
    <g id="Table" transform="translate(-5704.53 -2350.427)">
      <g id="Group_914" data-name="Group 914">
        <g id="Group_905" data-name="Group 905" transform="translate(285.952)">
          <g id="Group_904" data-name="Group 904">
            <g id="Group_903" data-name="Group 903" transform="translate(10.117 19.117)">
              <path id="Path_1307" data-name="Path 1307" d="M317.353,170.351h0a11.872,11.872,0,0,1,0-16.741l5.626-5.626a11.872,11.872,0,0,1,16.741,0h0a11.872,11.872,0,0,1,0,16.741l-5.626,5.626A11.874,11.874,0,0,1,317.353,170.351Z" transform="translate(-313.899 -144.53)" fill="#407bff"/>
              <path id="Path_1308" data-name="Path 1308" d="M317.353,170.351h0a11.872,11.872,0,0,1,0-16.741l5.626-5.626a11.872,11.872,0,0,1,16.741,0h0a11.872,11.872,0,0,1,0,16.741l-5.626,5.626A11.874,11.874,0,0,1,317.353,170.351Z" transform="translate(-313.899 -144.53)" fill="#fff" opacity="0.4"/>
            </g>
            <path id="Path_1309" data-name="Path 1309" d="M323.15,168.283h0a15.3,15.3,0,0,1,0-21.572l11-11a15.3,15.3,0,0,1,21.572,0h0a15.3,15.3,0,0,1,0,21.572l-11,11A15.3,15.3,0,0,1,323.15,168.283Z" transform="translate(-301.669 -131.257)" fill="#407bff"/>
            <path id="Path_1310" data-name="Path 1310" d="M343.7,148.635h0a26.114,26.114,0,0,0-36.823,0L343.7,185.456A26.112,26.112,0,0,0,343.7,148.635Z" transform="translate(-306.875 -126.95)" fill="#407bff"/>
          </g>
          <path id="Path_1311" data-name="Path 1311" d="M343.491,223.269a2.232,2.232,0,1,1,0-4.463,40.324,40.324,0,1,0,0-80.648,2.232,2.232,0,1,1,0-4.463,44.787,44.787,0,1,1,0,89.574Z" transform="translate(-291.738 -130.183)" fill="#407bff"/>
        </g>
        <g id="Group_913" data-name="Group 913" transform="translate(0 71.395)">
          <g id="Group_907" data-name="Group 907" transform="translate(23.989 82.918)">
            <path id="Path_1312" data-name="Path 1312" d="M415.448,480.288,364.5,238.4l-6.815,1.859,26.453,125.582-39.5,114.447H309.473l.105-1.57h-7.852l-.573,8.513H417.491l.467-6.943h-2.51Zm-30.3-109.647,23.1,109.648H347.3Z" transform="translate(-47.43 -238.4)" fill="#407bff"/>
            <path id="Path_1313" data-name="Path 1313" d="M239.281,480.288,188.329,238.4l-6.815,1.859,26.453,125.582-39.5,114.447H133.306l.105-1.57h-7.852l-.573,8.513H241.324l.467-6.943h-2.51Zm-30.3-109.647,23.1,109.648H171.133Z" transform="translate(-124.986 -238.4)" fill="#407bff"/>
            <path id="Path_1314" data-name="Path 1314" d="M440.634,321.778l-6.547,18.971H180.99l6.546-18.971Z" transform="translate(-100.331 -201.694)" fill="#407bff"/>
            <g id="Group_906" data-name="Group 906" transform="translate(77.243 134.393)">
              <path id="Path_1315" data-name="Path 1315" d="M431.714,331.713l3.416,4.662h-253.1l-3.416-4.662Z" transform="translate(-178.618 -331.713)" fill="#407bff"/>
              <path id="Path_1316" data-name="Path 1316" d="M431.714,331.713l3.416,4.662h-253.1l-3.416-4.662Z" transform="translate(-178.618 -331.713)" opacity="0.2"/>
            </g>
          </g>
          <g id="Group_908" data-name="Group 908" transform="translate(0.004)">
            <path id="Path_1317" data-name="Path 1317" d="M421.937,354.587H112.8l-4.469-4.469,397.946-169.29,4.469,4.469Z" transform="translate(-108.333 -180.828)" fill="#407bff"/>
            <path id="Path_1318" data-name="Path 1318" d="M421.937,354.587H112.8l-4.469-4.469,397.946-169.29,4.469,4.469Z" transform="translate(-108.333 -180.828)" opacity="0.4"/>
          </g>
          <rect id="Rectangle_625" data-name="Rectangle 625" width="18.481" height="1.44" transform="translate(43.799 74.928) rotate(-62.341)" fill="#407bff"/>
          <rect id="Rectangle_626" data-name="Rectangle 626" width="8.788" height="1.44" transform="translate(36.893 88.086) rotate(-62.341)" fill="#407bff"/>
          <path id="Path_1319" data-name="Path 1319" d="M417.468,350.118H108.333l88.81-169.29H506.279Z" transform="translate(-108.329 -180.828)" fill="#407bff"/>
          <g id="Group_912" data-name="Group 912" transform="translate(58.022 21.785)">
            <g id="Group_909" data-name="Group 909">
              <path id="Path_1320" data-name="Path 1320" d="M368.264,316.3l-218.787.791,64.729-121.14c51.849,3.714,129.511,4.057,214.455,2.372Z" transform="translate(-148.237 -195.954)" opacity="0.3"/>
              <path id="Path_1321" data-name="Path 1321" d="M365.493,316.748H148.616L210.922,197.98c66.8,2.473,138.339.9,215.389-1.244C414.372,226.667,392.715,270.1,365.493,316.748Z" transform="translate(-148.616 -195.61)" fill="#fff"/>
            </g>
            <g id="Group_911" data-name="Group 911" transform="translate(37.665 10.635)" opacity="0.6">
              <path id="Path_1322" data-name="Path 1322" d="M175.307,270.9q30.571-.158,61.143-.288,32.807-.147,65.614-.294,16.464-.076,32.93-.16a.558.558,0,0,0,0-1.116q-30.571.158-61.143.288-32.807.147-65.614.294-16.464.076-32.93.16a.558.558,0,0,0,0,1.116Z" transform="translate(-174.768 -174.41)" fill="#407bff"/>
              <path id="Path_1323" data-name="Path 1323" d="M284.462,300.637q19.594-37.32,39.571-74.437,5.759-10.7,11.549-21.377c.343-.631-.621-1.2-.964-.563Q314.5,241.371,294.764,278.69q-5.649,10.683-11.266,21.383c-.334.635.629,1.2.964.563Z" transform="translate(-126.931 -203.055)" fill="#407bff"/>
              <path id="Path_1324" data-name="Path 1324" d="M369.349,204.933q-30.714.158-61.431.29-33.187.149-66.376.3-16.419.076-32.837.16a.558.558,0,0,0,0,1.116q30.714-.158,61.431-.29,33.187-.149,66.376-.3,16.419-.076,32.837-.158a.559.559,0,0,0,0-1.118Z" transform="translate(-160.065 -202.636)" fill="#407bff"/>
              <path id="Path_1325" data-name="Path 1325" d="M227.033,203.617q-19.806,37.726-40,75.245-5.79,10.756-11.611,21.494c-.343.631.621,1.2.964.563q20.335-37.517,40.285-75.24,5.68-10.741,11.327-21.5c.334-.635-.628-1.2-.964-.563Z" transform="translate(-174.513 -203.338)" fill="#407bff"/>
              <g id="Group_910" data-name="Group 910" transform="translate(19.862 9.86)">
                <path id="Path_1326" data-name="Path 1326" d="M226.687,279.405q11.281-22.163,22.561-44.326,3.033-5.96,6.068-11.921c.326-.638-.638-1.2-.964-.563q-11.618,22.826-23.235,45.653l-5.392,10.593c-.327.641.635,1.206.962.565Z" transform="translate(-172.226 -204.844)" fill="#407bff"/>
                <path id="Path_1327" data-name="Path 1327" d="M189.589,270.187q6.49-12.753,12.981-25.5c.326-.638-.638-1.2-.964-.563q-6.49,12.753-12.981,25.5c-.325.639.637,1.2.964.563Z" transform="translate(-188.559 -195.368)" fill="#407bff"/>
                <path id="Path_1328" data-name="Path 1328" d="M278.335,284.824c10.792-19.452,20.319-39.6,30.536-59.349,2.507-4.846,5.041-9.681,7.689-14.453.349-.628-.615-1.193-.964-.563-10.792,19.452-20.319,39.6-30.536,59.349-2.507,4.846-5.041,9.681-7.689,14.453-.35.628.614,1.191.964.563Z" transform="translate(-149.493 -210.184)" fill="#407bff"/>
                <path id="Path_1329" data-name="Path 1329" d="M237.224,284.264c9.8-19.263,19.687-38.482,29.459-57.758q1.657-3.271,3.31-6.543.892-1.765,1.78-3.53.441-.877.883-1.754c.239-.477.619-1.795,1.108-2.054a7.626,7.626,0,0,1,2.176-.023l2.751-.029,5.892-.062q13.144-.136,26.289-.215c8.847-.043,17.7-.072,26.545.085a.558.558,0,0,0,0-1.116c-21.353-.379-42.723.024-64.076.249a.551.551,0,0,0-.481.277c-12.069,24.036-24.408,47.937-36.6,71.91-.323.639.639,1.2.966.563Z" transform="translate(-167.589 -209.777)" fill="#407bff"/>
                <path id="Path_1330" data-name="Path 1330" d="M285.3,283.857c-5.254-18.935-11.495-37.593-17.539-56.285q-2.549-7.883-5.065-15.778c-.216-.683-1.293-.39-1.076.3,6.084,19.174,12.487,38.247,18.344,57.493,1.473,4.841,2.908,9.694,4.26,14.569a.558.558,0,0,0,1.076-.3Z" transform="translate(-156.406 -209.646)" fill="#407bff"/>
                <path id="Path_1331" data-name="Path 1331" d="M334.4,211.371c-11.9,10.025-24.663,19.014-37.374,27.967-13.762,9.693-27.645,19.221-41.181,29.231-6.68,4.94-13.282,10-19.626,15.363-.549.464.243,1.25.789.789,12.13-10.26,25.122-19.484,38.094-28.638,13.677-9.65,27.49-19.111,40.97-29.034,6.5-4.789,12.939-9.684,19.116-14.889.55-.462-.242-1.249-.789-.789Z" transform="translate(-167.66 -209.723)" fill="#407bff"/>
                <path id="Path_1332" data-name="Path 1332" d="M235.627,262.136q24.7.7,49.422.671c3.981,0,7.963-.01,11.945-.086a.558.558,0,0,0,0-1.116c-16.527.32-33.081-.006-49.6-.318q-5.88-.11-11.761-.266a.558.558,0,0,0,0,1.116Z" transform="translate(-168.075 -187.804)" fill="#407bff"/>
                <path id="Path_1333" data-name="Path 1333" d="M219.918,285.078c10.5-19.54,20.208-39.5,30.347-59.226,2.506-4.877,5.029-9.745,7.625-14.575.34-.632-.624-1.2-.964-.563-10.5,19.54-20.208,39.5-30.347,59.226-2.506,4.877-5.029,9.745-7.625,14.575-.34.632.624,1.2.964.563Z" transform="translate(-175.209 -210.073)" fill="#407bff"/>
                <path id="Path_1334" data-name="Path 1334" d="M198.383,284.419q9.849-19.357,19.734-38.7,4.934-9.676,9.854-19.36,2.407-4.74,4.8-9.481c.524-1.036,1.316-3.657,2.437-4.106a10.056,10.056,0,0,1,2.84-.045l3.19-.055c8.361-.145,16.726-.305,25.086-.045.719.023.717-1.093,0-1.116-10.607-.331-21.219,0-31.826.154a.555.555,0,0,0-.481.277c-12.12,24.012-24.4,47.938-36.6,71.91-.327.638.635,1.2.962.563Z" transform="translate(-184.687 -209.661)" fill="#407bff"/>
                <path id="Path_1335" data-name="Path 1335" d="M220,284.285c2.156-24.029,3.364-48.133,5.587-72.156.066-.714-1.05-.71-1.116,0-2.224,24.023-3.432,48.127-5.587,72.156-.063.714,1.053.71,1.116,0Z" transform="translate(-175.211 -209.563)" fill="#407bff"/>
                <path id="Path_1336" data-name="Path 1336" d="M266.6,211.636c-17.855,19.265-36.406,37.871-54.548,56.864q-7.4,7.747-14.686,15.6c-.487.527.3,1.318.789.789,17.968-19.448,36.653-38.221,54.961-57.345q7.19-7.509,14.273-15.118c.488-.526-.3-1.316-.789-.789Z" transform="translate(-184.749 -209.622)" fill="#407bff"/>
                <path id="Path_1337" data-name="Path 1337" d="M197.272,262.321c10.615.523,21.287.975,31.916.681a.558.558,0,0,0,0-1.116c-10.629.294-21.3-.158-31.916-.681-.717-.035-.716,1.082,0,1.116Z" transform="translate(-184.96 -187.723)" fill="#407bff"/>
              </g>
              <path id="Path_1338" data-name="Path 1338" d="M209.136,217.678a3.918,3.918,0,0,0-.446,2.971,2.611,2.611,0,0,0,1.842,1.721c2.028.557,4.367-.472,5.938-1.707A6.184,6.184,0,0,0,219,215.342a3.351,3.351,0,0,0-3.565-2.924,5.226,5.226,0,0,0-3.216,1.635,17.132,17.132,0,0,0-1.324,1.362,3.289,3.289,0,0,0-.844,1.476c-.131.7.943,1,1.076.3.145-.775.93-1.409,1.462-1.94a6.419,6.419,0,0,1,2.028-1.53,2.359,2.359,0,0,1,3.2,1.364,4.587,4.587,0,0,1-1.383,4.116,7.1,7.1,0,0,1-4.619,2.189,2.056,2.056,0,0,1-1.9-.722,2.492,2.492,0,0,1,.184-2.425c.336-.634-.628-1.2-.962-.563Z" transform="translate(-159.894 -199.343)" fill="#407bff"/>
            </g>
          </g>
          <path id="Path_1339" data-name="Path 1339" d="M506.283,180.83l-88.82,169.286H108.33L197.15,180.83h88.618l-45.166,20.7c-.029.014-.072.029-.1.043-23.044,8.4-41.464,21.258-50.884,37.317-21.56,36.784,12.343,76.39,75.757,88.46s132.286-7.979,153.846-44.763a44.072,44.072,0,0,0,6.452-24.441l4.652-77.312h75.958Z" transform="translate(-108.33 -180.827)" opacity="0.2"/>
        </g>
      </g>
    </g>
    <g id="Character_1_" transform="translate(-5649.371 -2394.324)">
      <g id="Group_925" data-name="Group 925">
        <path id="Path_1340" data-name="Path 1340" d="M201.674,163.668c-3.74,6.6-7.524,13.419-11.14,20.168s-7.164,13.574-10.162,20.372c-.788,1.7-1.443,3.38-2.139,5.07-.065.161-.023.05-.035.062a.16.16,0,0,0-.01-.037c0-.009-.023-.029-.029-.009-.032.009-.049.107-.076.226a5.2,5.2,0,0,0,.063,1.3,17.333,17.333,0,0,0,1.318,4.064,47.4,47.4,0,0,0,2.319,4.58,166.545,166.545,0,0,0,12.866,18.389l-5.617,5.983a96.261,96.261,0,0,1-17.911-17.1,39.143,39.143,0,0,1-6.9-12.271,19.091,19.091,0,0,1-.837-4.5,16.036,16.036,0,0,1,.079-2.706,14.661,14.661,0,0,1,.239-1.453c.046-.242.121-.5.187-.746l.187-.638c.654-1.993,1.29-4.015,2.018-5.934a225.975,225.975,0,0,1,9.762-22.232c3.609-7.171,7.375-14.1,11.567-21.033Z" transform="translate(-139.261 -76.811)" fill="#ffc3bd"/>
        <path id="Path_1341" data-name="Path 1341" d="M185.375,211.258l7.675,2.518L186.6,224.635s-5.636-2.541-6.763-7.714Z" transform="translate(-132.008 -52.14)" fill="#ffc3bd"/>
        <path id="Path_1342" data-name="Path 1342" d="M201.453,217.206l-7.475,8.368-9.442-1.708,6.447-10.859Z" transform="translate(-129.941 -51.37)" fill="#ffc3bd"/>
        <path id="Path_1343" data-name="Path 1343" d="M221.1,126.4c-.219.854.056,1.662.614,1.806s1.188-.432,1.407-1.286-.056-1.662-.614-1.806S221.324,125.543,221.1,126.4Z" transform="translate(-113.875 -90.075)" fill="#263238"/>
        <path id="Path_1344" data-name="Path 1344" d="M221.7,127.137s.677,5.425,2.205,8.351c-1.872,1.023-4.276-.281-4.276-.281Z" transform="translate(-114.492 -89.173)" fill="#ed847e"/>
        <path id="Path_1345" data-name="Path 1345" d="M219.845,122.557a.512.512,0,0,1-.256-.278.519.519,0,0,1,.294-.671,5.138,5.138,0,0,1,4.711.382.518.518,0,0,1-.6.844h0a4.112,4.112,0,0,0-3.733-.262A.51.51,0,0,1,219.845,122.557Z" transform="translate(-114.525 -91.78)" fill="#263238"/>
        <path id="Path_1346" data-name="Path 1346" d="M201.444,128.315c1.567,8,3.133,22.648-2.463,27.982,0,0,2.186,8.111,17.044,8.111,16.338,0,7.808-8.11,7.808-8.11-8.916-2.13-8.686-8.745-7.133-14.958Z" transform="translate(-123.581 -88.655)" fill="#ffc3bd"/>
        <g id="Group_915" data-name="Group 915" transform="translate(71.919 60.387)">
          <path id="Path_1347" data-name="Path 1347" d="M197.314,154.081c-.776-4.3-1.615-9.226,1.2-10.475,3.1-1.374,19.368-1.532,24.628,2.1s2.878,11.986,2.878,11.986Z" transform="translate(-196.564 -142.706)" fill="#263238"/>
          <path id="Path_1348" data-name="Path 1348" d="M197.314,154.081c-.776-4.3-1.615-9.226,1.2-10.475,3.1-1.374,19.368-1.532,24.628,2.1s2.878,11.986,2.878,11.986Z" transform="translate(-196.564 -142.706)" fill="#407bff" opacity="0.6"/>
        </g>
        <path id="Path_1349" data-name="Path 1349" d="M161.75,405.868a3.517,3.517,0,0,0,2.721-.15,1.054,1.054,0,0,0,.251-1.2,1.2,1.2,0,0,0-.665-.762c-1.476-.7-4.868.678-5.012.737a.259.259,0,0,0-.014.472A13.779,13.779,0,0,0,161.75,405.868Zm1.779-1.746a1.422,1.422,0,0,1,.3.1.693.693,0,0,1,.393.442c.138.465-.035.612-.091.661-.588.5-2.77.039-4.308-.576A8.484,8.484,0,0,1,163.529,404.123Z" transform="translate(-141.234 32.517)" fill="#407bff"/>
        <path id="Path_1350" data-name="Path 1350" d="M159.088,405.893a.276.276,0,0,0,.128,0c1.236-.361,3.88-2.24,3.912-3.478a.845.845,0,0,0-.663-.838,1.411,1.411,0,0,0-1.148.092c-1.46.746-2.384,3.773-2.422,3.9a.257.257,0,0,0,.193.327Zm3.094-3.863c.037.009.075.019.114.032.32.111.315.268.314.336-.019.733-1.763,2.206-3.043,2.8.32-.874,1.05-2.6,1.986-3.073A.9.9,0,0,1,162.182,402.03Z" transform="translate(-141.234 31.608)" fill="#407bff"/>
        <path id="Path_1351" data-name="Path 1351" d="M217.917,409.684c1.4,0,2.758-.193,3.212-.824a.981.981,0,0,0-.022-1.132,1.282,1.282,0,0,0-.821-.6c-1.819-.5-5.639,1.682-5.8,1.776a.259.259,0,0,0,.078.478A19.278,19.278,0,0,0,217.917,409.684Zm1.733-2.12a1.94,1.94,0,0,1,.5.059.781.781,0,0,1,.507.362c.183.321.117.481.05.572-.508.707-3.271.723-5.3.435A11.72,11.72,0,0,1,219.649,407.564Z" transform="translate(-116.813 34.056)" fill="#407bff"/>
        <path id="Path_1352" data-name="Path 1352" d="M214.614,410.181a.254.254,0,0,0,.107-.023c1.319-.592,3.932-2.955,3.733-4.191-.048-.291-.253-.651-.964-.723a1.891,1.891,0,0,0-1.436.444c-1.39,1.142-1.685,4.086-1.7,4.211a.257.257,0,0,0,.256.282Zm2.667-4.432a1.418,1.418,0,0,1,.156.009c.465.047.5.23.506.291.12.742-1.656,2.6-3,3.408.14-.86.53-2.621,1.443-3.37A1.369,1.369,0,0,1,217.281,405.75Z" transform="translate(-116.813 33.256)" fill="#407bff"/>
        <path id="Path_1353" data-name="Path 1353" d="M206.19,416.226h10.93l1.089-25.312h-10.93Z" transform="translate(-120.408 26.952)" fill="#ffc3bd"/>
        <path id="Path_1354" data-name="Path 1354" d="M150.566,409.739l10.682,2.313,10.725-23.577-10.682-2.313Z" transform="translate(-144.896 24.86)" fill="#ffc3bd"/>
        <path id="Path_1355" data-name="Path 1355" d="M164.008,404.194l-12-2.6a.952.952,0,0,0-1.067.533l-4.165,9.039a1.607,1.607,0,0,0,1.152,2.238c4.205.835,6.294,1.03,11.572,2.173,3.246.7,10.577,2.489,15.061,3.459,4.386.949,6.029-3.336,4.28-4.135-7.841-3.582-11.117-6.737-13.24-9.676A2.642,2.642,0,0,0,164.008,404.194Z" transform="translate(-146.629 31.645)" fill="#263238"/>
        <path id="Path_1356" data-name="Path 1356" d="M218.334,407.61H206.4a.952.952,0,0,0-.93.746l-2.159,9.716a1.591,1.591,0,0,0,1.573,1.944c4.306-.073,10.528-.326,15.939-.326,6.328,0,11.793.346,19.214.346,4.488,0,5.732-4.537,3.854-4.947-8.551-1.871-15.533-2.071-22.921-6.627A5.056,5.056,0,0,0,218.334,407.61Z" transform="translate(-121.694 34.302)" fill="#263238"/>
        <path id="Path_1357" data-name="Path 1357" d="M233.532,156.911c3.562,8.022,7.442,16.259,11.472,24.136,2.028,3.949,4.135,7.833,6.33,11.584a103.434,103.434,0,0,0,7,10.514l.929,1.144c.222.216.039.124.35.382a13.9,13.9,0,0,0,1.856,1.351,53.364,53.364,0,0,0,5.343,2.924c3.861,1.858,7.96,3.65,12.118,5.323,8.313,3.386,16.874,6.637,25.358,9.874l-2.068,7.941a258.986,258.986,0,0,1-27.339-5.9c-4.518-1.288-9.048-2.621-13.613-4.384a66.7,66.7,0,0,1-7.024-3.084,29.138,29.138,0,0,1-3.879-2.431,18.259,18.259,0,0,1-2.183-1.936l-1.341-1.439a98.683,98.683,0,0,1-8.968-11.859c-2.669-4.024-5.075-8.126-7.373-12.262A252.764,252.764,0,0,1,218.244,163.3Z" transform="translate(-115.101 -76.065)" fill="#ffc3bd"/>
        <g id="Group_919" data-name="Group 919" transform="translate(22.349 69.78)">
          <g id="Group_916" data-name="Group 916" transform="translate(2.669)">
            <path id="Path_1358" data-name="Path 1358" d="M191.443,149.562C181.2,151.911,164,202.776,164,202.776l16.738,5.565s17.083-25.3,22.878-37.5C209.686,158.055,201.918,147.161,191.443,149.562Z" transform="translate(-163.999 -149.228)" fill="#407bff"/>
            <path id="Path_1359" data-name="Path 1359" d="M191.443,149.562C181.2,151.911,164,202.776,164,202.776l16.738,5.565s17.083-25.3,22.878-37.5C209.686,158.055,201.918,147.161,191.443,149.562Z" transform="translate(-163.999 -149.228)" opacity="0.5"/>
          </g>
          <g id="Group_918" data-name="Group 918" transform="translate(0 51.163)">
            <g id="Group_917" data-name="Group 917">
              <path id="Path_1360" data-name="Path 1360" d="M184.458,190.2s-16.4-3.128-20.124-5.453c-1.313,1.9-2.928,8.781-1.816,10.81s16.338,4.962,18.413,3.766S184.458,190.2,184.458,190.2Z" transform="translate(-162.146 -184.752)" fill="#263238"/>
            </g>
            <path id="Path_1361" data-name="Path 1361" d="M184.458,190.2s-16.4-3.128-20.124-5.453c-1.313,1.9-2.928,8.781-1.816,10.81s16.338,4.962,18.413,3.766S184.458,190.2,184.458,190.2Z" transform="translate(-162.146 -184.752)" fill="#407bff" opacity="0.6"/>
          </g>
        </g>
        <path id="Path_1362" data-name="Path 1362" d="M189.513,162.128c-3.124,3.124-5.967,11.991-6.056,23.27,3.615-5.742,7.35-11.932,9.954-16.872C192.176,164.018,190.792,160.833,189.513,162.128Z" transform="translate(-130.416 -73.897)" opacity="0.3"/>
        <g id="Group_920" data-name="Group 920" transform="translate(52.461 67.279)">
          <path id="Path_1363" data-name="Path 1363" d="M244.289,150.89s11.633,13.141.647,94.474H186.473c-.4-8.974,5.237-52.752-3.419-95.037a152.6,152.6,0,0,1,19.57-2.471c7.471-.36,18.285-.6,24.851,0A109.835,109.835,0,0,1,244.289,150.89Z" transform="translate(-183.054 -147.491)" fill="#407bff"/>
          <path id="Path_1364" data-name="Path 1364" d="M244.289,150.89s11.633,13.141.647,94.474H186.473c-.4-8.974,5.237-52.752-3.419-95.037a152.6,152.6,0,0,1,19.57-2.471c7.471-.36,18.285-.6,24.851,0A109.835,109.835,0,0,1,244.289,150.89Z" transform="translate(-183.054 -147.491)" opacity="0.5"/>
        </g>
        <path id="Path_1365" data-name="Path 1365" d="M219.552,167.886c1.1,11.873,8.7,26.944,13.049,33.759.58-7.826.879-14.656.968-20.621Z" transform="translate(-114.525 -71.234)" opacity="0.3"/>
        <g id="Group_923" data-name="Group 923" transform="translate(98.325 70.078)">
          <g id="Group_921" data-name="Group 921">
            <path id="Path_1366" data-name="Path 1366" d="M215.795,158.5c-7.041,13.318,29.728,56.643,29.728,56.643l12.84-13.04s-16.666-29.156-20.585-42.1C232.938,144.03,221.155,148.366,215.795,158.5Z" transform="translate(-214.899 -149.435)" fill="#407bff"/>
            <path id="Path_1367" data-name="Path 1367" d="M215.795,158.5c-7.041,13.318,29.728,56.643,29.728,56.643l12.84-13.04s-16.666-29.156-20.585-42.1C232.938,144.03,221.155,148.366,215.795,158.5Z" transform="translate(-214.899 -149.435)" opacity="0.5"/>
          </g>
          <g id="Group_922" data-name="Group 922" transform="translate(27.889 50.101)">
            <path id="Path_1368" data-name="Path 1368" d="M249.328,184.221s-11.149,12.425-15.065,14.415c.945,2.1,6.006,7.044,8.317,7.139s12.687-11.425,12.736-13.821S249.328,184.221,249.328,184.221Z" transform="translate(-234.263 -184.221)" fill="#263238"/>
            <path id="Path_1369" data-name="Path 1369" d="M249.328,184.221s-11.149,12.425-15.065,14.415c.945,2.1,6.006,7.044,8.317,7.139s12.687-11.425,12.736-13.821S249.328,184.221,249.328,184.221Z" transform="translate(-234.263 -184.221)" fill="#407bff" opacity="0.6"/>
          </g>
        </g>
        <path id="Path_1370" data-name="Path 1370" d="M276.487,205.014l10.589-4.568,3.294,11.489s-8.075,5.283-14.552.655Z" transform="translate(-89.755 -56.9)" fill="#ffc3bd"/>
        <path id="Path_1371" data-name="Path 1371" d="M295.786,209.994h0a.762.762,0,0,1-1.054-.2l-11.755-17.43a.762.762,0,0,1,.2-1.054h0a.762.762,0,0,1,1.054.2l11.755,17.43A.762.762,0,0,1,295.786,209.994Z" transform="translate(-86.66 -60.98)" fill="#263238"/>
        <path id="Path_1372" data-name="Path 1372" d="M294.793,201.3l4.651,6.883-12.516,3.75-3.294-11.489Z" transform="translate(-86.314 -56.9)" fill="#ffc3bd"/>
        <g id="Group_924" data-name="Group 924" transform="translate(10.857 411.028)">
          <path id="Path_1373" data-name="Path 1373" d="M218.046,390.919l-.559,13.047H206.553l.559-13.047Z" transform="translate(-131.105 -384.073)" opacity="0.2"/>
          <path id="Path_1374" data-name="Path 1374" d="M159.7,386.166l10.688,2.315-5.535,12.151-10.687-2.314Z" transform="translate(-154.167 -386.166)" opacity="0.2"/>
        </g>
        <path id="Path_1375" data-name="Path 1375" d="M202.305,123.394c-2.048,10.652-3.788,16.783.127,23.526,5.889,10.142,20.067,8.663,25.256-1.164,4.671-8.845,7.236-24.779-1.957-31.587A14.8,14.8,0,0,0,202.305,123.394Z" transform="translate(-123.092 -96.194)" fill="#ffc3bd"/>
        <path id="Path_1376" data-name="Path 1376" d="M199.688,117.067c7.71-2.526,22.309-7.952,27.474,4.447s-15.8,25.34-21.186,25.355C201.686,146.88,191.221,119.839,199.688,117.067Z" transform="translate(-124.684 -95.094)" fill="#263238"/>
        <path id="Path_1377" data-name="Path 1377" d="M216.76,127.922c15.091,8.287,28.73-3.615,22.677-17.084s-19.5-11.59-15.331-4.952-7.352-3.385-15.294-.326c-5.579,2.149,1.656,5.654,2.332,8.175s-14.59,2.61-16.625,6.421,5.3,11.721,9.053,10.479S214.061,126.44,216.76,127.922Z" transform="translate(-125.7 -100.778)" fill="#263238"/>
        <path id="Path_1378" data-name="Path 1378" d="M212.946,125.174a12.259,12.259,0,0,0,1.121,7.793c1.635,3.146,4.456,2.2,5.679-.785,1.1-2.686,1.577-7.56-.87-9.7C216.463,120.37,213.586,121.989,212.946,125.174Z" transform="translate(-117.527 -91.642)" fill="#ffc3bd"/>
        <path id="Path_1379" data-name="Path 1379" d="M237.943,215.447s-12.4,83.53-19.214,114.823C211.271,364.539,171.4,474.4,171.4,474.4l-19.566-4.236s29.852-102.855,34.108-136.784c4.619-36.824,14.281-117.93,14.281-117.93h37.723Z" transform="translate(-144.339 -50.296)" fill="#263238"/>
        <path id="Path_1380" data-name="Path 1380" d="M176.513,392.025c.084.019-3.647,7.076-3.647,7.076l-22.014-4.766,1.855-6.618Z" transform="translate(-144.77 25.545)" fill="#407bff"/>
        <path id="Path_1381" data-name="Path 1381" d="M209.9,236.145c-14.343,2.811-12.825,56.3-11.1,83.809,4.136-19.446,10.191-56.865,14.328-83.423A4.911,4.911,0,0,0,209.9,236.145Z" transform="translate(-124.136 -41.233)" opacity="0.3"/>
        <path id="Path_1382" data-name="Path 1382" d="M237.767,215.447s1.505,81.722.317,115.054c-1.237,34.669-13.347,148.189-13.347,148.189H206.221s-.68-111.493-1.5-145.543c-.9-37.119-5.381-117.7-5.381-117.7Z" transform="translate(-123.425 -50.296)" fill="#263238"/>
        <path id="Path_1383" data-name="Path 1383" d="M226.837,393.1c.085,0-1.044,7.687-1.044,7.687H203.269l-.609-6.86Z" transform="translate(-121.962 27.916)" fill="#407bff"/>
      </g>
    </g>
  </g>
</svg>
