<svg xmlns="http://www.w3.org/2000/svg" width="130" height="130" viewBox="0 0 130 130">
  <g id="Group_1053" data-name="Group 1053" transform="translate(-824.157 -219.157)">
    <rect id="_8V1z7D_t20_YX6vKm" data-name="8V1z7D_t20_YX6vKm" width="130" height="130" rx="12" transform="translate(824.157 219.157)" fill="#eceff1"/>
    <path id="Subtraction_4" data-name="Subtraction 4" d="M92.668,101.361H.075c-.081-9.05-.09-16.5-.057-16.912a3.863,3.863,0,0,1,1.445-2.7A23.108,23.108,0,0,1,10.95,77.4l16.956-3.369a3.816,3.816,0,0,0,3.074-3.751V66.434a46.224,46.224,0,0,1-3.148-5.487l-.065-.125a33.818,33.818,0,0,0-2.712-4.7c-3.46-3.428-6.8-7.286-7.826-12.258-.966-4.657.016-7.105,1.012-9.034l.1-2.764c-.108-4.591-.242-10.305,1.058-13.8C23.591,6.821,36.089.413,46.269,0A27.289,27.289,0,0,1,59.317,3.369a12.754,12.754,0,0,0,2.633.612c2.321.39,5.209.875,7.177,2.986,2.795,2.985,3.886,6.344,4.025,12.4,1.171,4.47,1.321,10.617,1.321,15.473a10.717,10.717,0,0,1,1.318,3.512,14.638,14.638,0,0,1-.229,5.523c-1.027,4.941-4.342,8.782-7.771,12.2a30.717,30.717,0,0,0-2.72,4.724,45.774,45.774,0,0,1-3.191,5.635v3.851a3.8,3.8,0,0,0,3.059,3.751L81.882,77.4A23.06,23.06,0,0,1,91.4,81.753a3.834,3.834,0,0,1,1.444,2.687c.04.448-.03,8.1-.176,16.919Z" transform="translate(842.063 247.599)" fill="#455a64"/>
  </g>
</svg>
